<svg viewBox="0 0 31.75 31.75" xmlns="http://www.w3.org/2000/svg">
  <style xmlns="http://www.w3.org/2000/svg">
    .m {
      fill: #333;
    }

    @media (prefers-color-scheme: dark) {
      .m {
        fill: #eee;
      }
    }
  </style>
  <path
    class="m"
    d="m15.353 26.854c-1.1433 0.07815-2.3506-0.33945-3.2816-0.99196-0.32981-0.62152-0.10349-1.4309-0.16816-2.1344 0.01214-4.6854 0.87031-9.3209 2.091-13.83 0.05717-0.55779 0.68947-2.1666-0.19747-1.0756-2.7155 2.9938-4.6963 6.5828-6.3939 10.229-1.0929 2.5137-2.1797 5.1009-2.4312 7.8581-1.0721-0.27896-2.7307-0.83025-2.2353-2.2761 0.95045-3.3427 2.8051-6.3298 4.4086-9.3857 1.8476-3.2688 3.7011-6.6225 6.3585-9.3153 0.73248-0.78868 1.7118-1.4385 2.7703-0.80002 0.79889 0.40042 2.377 0.67786 2.4608 1.5966-1.5816 3.8466-2.5548 7.9214-3.3247 12-0.09299 0.65673-0.50075 2.5398 0.05021 1.013 1.7473-3.8213 3.8692-7.4798 6.3116-10.899 1.0779-1.4028 2.0736-2.9219 3.5009-4.0012 1.3765 0.17205 2.7367 0.73662 3.8319 1.5847-0.41258 1.1763-1.1086 2.4466-1.4266 3.7391-1.5643 5.4026-2.2597 11.07-1.9977 16.69-1.1605-0.20333-3.4134-0.21986-3.4498-1.7546-0.11118-5.1087 0.70888-10.194 2.0743-15.106 0.03105-0.58807 0.82752-2.4151-0.23144-1.4251-2.3661 2.0221-3.8544 4.847-5.2868 7.559-1.6139 3.3822-3.1032 6.958-3.4336 10.727z"
  />
</svg>
