<svg xmlns="http://www.w3.org/2000/svg" width="1440" height="560" preserveAspectRatio="none" viewBox="0 0 1440 560"><g mask="url(&quot;#a&quot;)" fill="none"><path fill="transparent" d="M0 0h1440v560H0z"/><path d="m-69.54 350.27 140.53-3.06m-140.53 3.06.29 178.84m-.29-178.84L73.05 523.08M-69.54 350.27l17.58 287.91m-17.29-109.07 17.29 109.07m-17.29-109.07 142.3-6.03m-142.3 6.03L87.19 690.35M-69.25 529.11l140.24-181.9M-51.96 638.18l139.15 52.17m-139.15-52.17 125.01-115.1m-125.01 115.1 242.83 31.02M70.99 347.21l2.06 175.87m0 0 132.66-2.01m-132.66 2.01 14.14 167.27M73.05 523.08 190.87 669.2M87.19 690.35l103.68-21.15m67.42-266.98 96.74-3.63m-96.74 3.63-52.58 118.85m52.58-118.85-187.3-55.01M190.87 669.2l14.84-148.13m149.32-122.48L374.7 560.4m-19.67-161.81 173.63 6.18m-173.63-6.18 135.02 110.42M355.03 398.59 205.71 521.07M374.7 560.4l-5.84 114.81m5.84-114.81 115.35-51.39m-121.19 166.2 137.95-16.28m-137.95 16.28-177.99-6.01m177.99 6.01 121.19-166.2m-121.19 166.2L205.71 521.07m163.15 154.14-13.83-276.62m173.63 6.18-38.61 104.24m38.61-104.24 112.06-32.24m-112.06 32.24L374.7 560.4m115.35-51.39 16.76 149.92m-16.76-149.92 150.67-136.48m-133.91 286.4L374.7 560.4m132.11 98.53 175.13 1.66m-175.13-1.66 21.85-254.16m171.05-179.68 133.22 22.38m-133.22-22.38-58.99 147.44m58.99-147.44 114 142.02m-114-142.02L528.66 404.77m112.06-32.24 172.99-5.42M681.94 660.59l116.29 41.25m-116.29-41.25 140.71-164.81M681.94 660.59 490.05 509.01m191.89 151.58-41.22-288.06m41.22 288.06L528.66 404.77m304.27-157.3 119.6 10.68m-119.6-10.68-19.22 119.64m0 0 8.94 128.67m-8.94-128.67 138.82-108.96M813.71 367.11l175.76 34.07m-166.82 94.6 166.82-94.6M798.23 701.84l24.42-206.06M978.12-45.17l.48 119m-.48-119 172.44-37.85M978.12-45.17 1096.2 91.36M978.12-45.17l292.47-11.07M978.12-45.17l-25.59 303.32m25.59-303.32 267.4 152.49M978.6 73.83l117.6 17.53M978.6 73.83l-26.07 184.32M978.6 73.83 832.93 247.47M978.6 73.83l143.66 179.57M978.6 73.83l171.96-156.85M952.53 258.15l36.94 143.03m0 0 102.65-39.5m-102.65 39.5 116.85 88.31m-116.85-88.31 132.79-147.78m-111.03 406 85.53-19.44m-85.53 19.44 95.09-169.91m-95.09 169.91-213 42.44m213-42.44L822.65 495.78m188.58 163.62-21.76-258.22m161.09-484.2 120.03 26.78M1122.26 253.4l-30.14 108.28m0 0 14.2 127.81m-14.2-127.81L952.53 258.15m144.23 381.81 9.56-150.47m-9.56 150.47 174.09 68.76m-174.09-68.76L989.47 401.18m281.12-457.42 129.48 5.27m-129.48-5.27-25.07 163.56m25.07-163.56 176.88 114.02M1270.59-56.24 1096.2 91.36m174.39-147.6 27.87 249.31m-52.94-85.75 52.94 85.75m-52.94-85.75L1096.2 91.36m202.26 101.71 143.04 37.34m-155.78 134.95 12.74-172.29m-12.74 172.29 172.54 18.91m-187.41 324.45 172.82-.28m-43.6-759.41 47.4 108.75m-47.4-108.75L1545.12-49m-97.65 106.78 125.7 19.73m-125.7-19.73L1545.12-49m-97.65 106.78-5.97 172.63m5.97-172.63-149.01 135.29m149.01-135.29 117.33 165.97m-123.3 6.66 123.3-6.66m-106.54 160.52 105.09-35.22m-105.09 35.22 94.29 103.62m-162.16 38.8 67.87-142.42m-67.87 142.42 162.16-38.8m-162.16 38.8 53.28 181.75m-53.28-181.75-104.67-161.33m157.95 343.08 97.01-45.18M1545.12-49l28.05 126.51M1545.12-49l19.68 272.75M1545.12-49l-274.53-7.24m302.58 133.75-8.37 146.24m8.37-146.24-131.67 152.9m131.67-152.9-173.1-128.48m164.73 274.72-1.45 125.3m0 0-10.8 138.84m10.8-138.84L1441.5 230.41m121.85 118.64-172.96 177.64m172.96-177.64 9.82-271.54m-32.49 585.75 11.87-175.37m-11.87 175.37-150.29-136.57" stroke="rgba(0, 190, 225, 0.05)" stroke-width="1.5"/><circle r="5" cx="-69.54" cy="350.27" fill="rgba(0, 190, 225, 0.05)"/><circle r="5" cx="-69.25" cy="529.11" fill="rgba(0, 190, 225, 0.05)"/><circle r="5" cx="-51.96" cy="638.18" fill="rgba(0, 190, 225, 0.05)"/><circle r="5" cx="70.99" cy="347.21" fill="rgba(0, 190, 225, 0.05)"/><circle r="5" cx="73.05" cy="523.08" fill="rgba(0, 190, 225, 0.05)"/><circle r="5" cx="87.19" cy="690.35" fill="rgba(0, 190, 225, 0.05)"/><circle r="5" cx="258.29" cy="402.22" fill="rgba(0, 190, 225, 0.05)"/><circle r="5" cx="205.71" cy="521.07" fill="rgba(0, 190, 225, 0.05)"/><circle r="5" cx="190.87" cy="669.2" fill="rgba(0, 190, 225, 0.05)"/><circle r="5" cx="355.03" cy="398.59" fill="rgba(0, 190, 225, 0.05)"/><circle r="5" cx="374.7" cy="560.4" fill="rgba(0, 190, 225, 0.05)"/><circle r="5" cx="368.86" cy="675.21" fill="rgba(0, 190, 225, 0.05)"/><circle r="5" cx="528.66" cy="404.77" fill="rgba(0, 190, 225, 0.05)"/><circle r="5" cx="490.05" cy="509.01" fill="rgba(0, 190, 225, 0.05)"/><circle r="5" cx="506.81" cy="658.93" fill="rgba(0, 190, 225, 0.05)"/><circle r="5" cx="699.71" cy="225.09" fill="rgba(0, 190, 225, 0.05)"/><circle r="5" cx="640.72" cy="372.53" fill="rgba(0, 190, 225, 0.05)"/><circle r="5" cx="681.94" cy="660.59" fill="rgba(0, 190, 225, 0.05)"/><circle r="5" cx="832.93" cy="247.47" fill="rgba(0, 190, 225, 0.05)"/><circle r="5" cx="813.71" cy="367.11" fill="rgba(0, 190, 225, 0.05)"/><circle r="5" cx="822.65" cy="495.78" fill="rgba(0, 190, 225, 0.05)"/><circle r="5" cx="798.23" cy="701.84" fill="rgba(0, 190, 225, 0.05)"/><circle r="5" cx="978.12" cy="-45.17" fill="rgba(0, 190, 225, 0.05)"/><circle r="5" cx="978.6" cy="73.83" fill="rgba(0, 190, 225, 0.05)"/><circle r="5" cx="952.53" cy="258.15" fill="rgba(0, 190, 225, 0.05)"/><circle r="5" cx="989.47" cy="401.18" fill="rgba(0, 190, 225, 0.05)"/><circle r="5" cx="1011.23" cy="659.4" fill="rgba(0, 190, 225, 0.05)"/><circle r="5" cx="1150.56" cy="-83.02" fill="rgba(0, 190, 225, 0.05)"/><circle r="5" cx="1096.2" cy="91.36" fill="rgba(0, 190, 225, 0.05)"/><circle r="5" cx="1122.26" cy="253.4" fill="rgba(0, 190, 225, 0.05)"/><circle r="5" cx="1092.12" cy="361.68" fill="rgba(0, 190, 225, 0.05)"/><circle r="5" cx="1106.32" cy="489.49" fill="rgba(0, 190, 225, 0.05)"/><circle r="5" cx="1096.76" cy="639.96" fill="rgba(0, 190, 225, 0.05)"/><circle r="5" cx="1270.59" cy="-56.24" fill="rgba(0, 190, 225, 0.05)"/><circle r="5" cx="1245.52" cy="107.32" fill="rgba(0, 190, 225, 0.05)"/><circle r="5" cx="1298.46" cy="193.07" fill="rgba(0, 190, 225, 0.05)"/><circle r="5" cx="1285.72" cy="365.36" fill="rgba(0, 190, 225, 0.05)"/><circle r="5" cx="1270.85" cy="708.72" fill="rgba(0, 190, 225, 0.05)"/><circle r="5" cx="1400.07" cy="-50.97" fill="rgba(0, 190, 225, 0.05)"/><circle r="5" cx="1447.47" cy="57.78" fill="rgba(0, 190, 225, 0.05)"/><circle r="5" cx="1441.5" cy="230.41" fill="rgba(0, 190, 225, 0.05)"/><circle r="5" cx="1458.26" cy="384.27" fill="rgba(0, 190, 225, 0.05)"/><circle r="5" cx="1390.39" cy="526.69" fill="rgba(0, 190, 225, 0.05)"/><circle r="5" cx="1443.67" cy="708.44" fill="rgba(0, 190, 225, 0.05)"/><circle r="5" cx="1545.12" cy="-49" fill="rgba(0, 190, 225, 0.05)"/><circle r="5" cx="1573.17" cy="77.51" fill="rgba(0, 190, 225, 0.05)"/><circle r="5" cx="1564.8" cy="223.75" fill="rgba(0, 190, 225, 0.05)"/><circle r="5" cx="1563.35" cy="349.05" fill="rgba(0, 190, 225, 0.05)"/><circle r="5" cx="1552.55" cy="487.89" fill="rgba(0, 190, 225, 0.05)"/><circle r="5" cx="1540.68" cy="663.26" fill="rgba(0, 190, 225, 0.05)"/><path d="m-108.52 662.12 35.21-103.8m-35.21 103.8 200-17m-200 17L71.63 552.46m159.27-19.02 108.69 27.39M230.9 533.44l7.73 148.94m-7.73-148.94L71.63 552.46m267.96 8.37 68.4 128.01m-68.4-128.01L238.63 682.38m100.96-121.55L532.75 551m312.43-186.64 100.43-13.31m-100.43 13.31-18.3 124.59m476.36-98.93 110.01 11.42m-110.01-11.42-22.73 135.16m22.73-135.16-42.17-138.8m300.76-63.28 22.33-106.41m-22.33 106.41-116.6-102.57m116.6 102.57 30.2 160.38m-30.2-160.38-160.01 53.59m160.01-53.59-148.58 213.5m148.58-213.5L1450.7-55.78m154.74 762.97-177.3-35.4m177.3 35.4-185.39-192.1m185.39 192.1-13.41-358.87m13.41 358.87-192.19-305.75M-73.31 558.32l144.94-5.86m-144.94 5.86 164.79 86.8m-164.79-86.8 304.21-24.88m-304.21 24.88 311.94 124.06m-167-129.92 19.85 92.66m147.15 37.26L91.48 645.12m316.51 43.72 118.24-49.33m-118.24 49.33-169.36-6.46m169.36 6.46L532.75 551M407.99 688.84 230.9 533.44m177.09 155.4 255.31-29.12M500.51 404.61 532.75 551m-32.24-146.39L339.59 560.83m160.92-156.22 25.72 234.9m-25.72-234.9 195.4 143.69m-195.4-143.69L230.9 533.44M532.75 551l-6.52 88.51m0 0 137.07 20.21m-137.07-20.21 169.68-91.21m-169.68 91.21-186.64-78.68m356.32-12.53L663.3 659.72m32.61-111.42 130.97-59.35M695.91 548.3 532.75 551m163.16-2.7 134.37 140.36M663.3 659.72l166.98 28.94m0 0 135.59-32.92m-135.59 32.92-3.4-199.71m118.73-137.9 179.08-3.61m-179.08 3.61-118.73 137.9m118.73-137.9 51 189.79m-51-189.79 205.81-101.3m-205.81 101.3 177.69-245.08M996.61 540.84l-30.74 114.9m30.74-114.9-169.73-51.89m138.99 166.79 138.89 42.99m-138.89-42.99L826.88 488.95m138.99 166.79L695.91 548.3m427.39-442.33 28.12 143.78m-28.12-143.78 170.88-41.36m-170.88 41.36 137.77 145.25M1123.3 105.97l152.12-154.19m-124 297.97-26.73 97.69m0 0 136.38-96.22m-136.38 96.22 178.55 42.58m-198.48 308.71L996.61 540.84m108.15 157.89 175.75-173.55m-175.75 173.55-274.48-10.07m274.48 10.07 323.38-26.94m-323.38 26.94L826.88 488.95m448.54-537.17 18.76 112.83m-18.76-112.83 175.28-7.56M1294.18 64.61l151.05 20.76m-184.16 165.85-109.65-1.47m109.65 1.47 140.75-9.69m-140.75 9.69 33.11-186.61m-13.67 460.57 139.54-10.09m-139.54 10.09 132.74-123.74m-132.74 123.74 147.63 146.61m-147.63-146.61-155.82-177.74M1450.7-55.78l120.47-41.25M1450.7-55.78l-5.47 141.15m5.47-141.15 133.46 137.31M1450.7-55.78 1294.18 64.61m151.05 20.76 138.93-3.84m-138.93 3.84-43.41 156.16m43.41-156.16L1275.42-48.22m126.4 289.75 11.43 159.91m0 0 6.8 113.65m0 0 8.09 156.7m-8.09-156.7-116.81-125.07m116.81 125.07 171.98-166.77m-163.89 323.47-14.89-270.35m14.89 270.35-124.9-281.77m267.93-487.05 12.99 178.56m-12.99-178.56-125.94 182.4m146.8 262.95-178.78 53.12" stroke="hsla(157.79999999999995, 93.1%, 93%, 0.08)" stroke-width="1.5"/><circle r="25" cx="-108.52" cy="662.12" fill="url(#b)"/><circle r="25" cx="230.9" cy="533.44" fill="url(#b)"/><circle r="25" cx="339.59" cy="560.83" fill="url(#b)"/><circle r="25" cx="845.18" cy="364.36" fill="url(#b)"/><circle r="25" cx="1303.24" cy="390.02" fill="url(#b)"/><circle r="25" cx="1561.83" cy="187.94" fill="url(#b)"/><circle r="25" cx="1605.44" cy="707.19" fill="url(#b)"/><circle r="5" cx="-73.31" cy="558.32" fill="rgba(249, 255, 253, 0.054)"/><circle r="5" cx="71.63" cy="552.46" fill="rgba(249, 255, 253, 0.054)"/><circle r="5" cx="91.48" cy="645.12" fill="rgba(249, 255, 253, 0.054)"/><circle r="5" cx="238.63" cy="682.38" fill="rgba(249, 255, 253, 0.054)"/><circle r="5" cx="407.99" cy="688.84" fill="rgba(249, 255, 253, 0.054)"/><circle r="5" cx="500.51" cy="404.61" fill="rgba(249, 255, 253, 0.054)"/><circle r="5" cx="532.75" cy="551" fill="rgba(249, 255, 253, 0.054)"/><circle r="5" cx="526.23" cy="639.51" fill="rgba(249, 255, 253, 0.054)"/><circle r="5" cx="695.91" cy="548.3" fill="rgba(249, 255, 253, 0.054)"/><circle r="5" cx="663.3" cy="659.72" fill="rgba(249, 255, 253, 0.054)"/><circle r="5" cx="826.88" cy="488.95" fill="rgba(249, 255, 253, 0.054)"/><circle r="5" cx="830.28" cy="688.66" fill="rgba(249, 255, 253, 0.054)"/><circle r="5" cx="945.61" cy="351.05" fill="rgba(249, 255, 253, 0.054)"/><circle r="5" cx="996.61" cy="540.84" fill="rgba(249, 255, 253, 0.054)"/><circle r="5" cx="965.87" cy="655.74" fill="rgba(249, 255, 253, 0.054)"/><circle r="5" cx="1123.3" cy="105.97" fill="rgba(249, 255, 253, 0.054)"/><circle r="5" cx="1151.42" cy="249.75" fill="rgba(249, 255, 253, 0.054)"/><circle r="5" cx="1124.69" cy="347.44" fill="rgba(249, 255, 253, 0.054)"/><circle r="5" cx="1104.76" cy="698.73" fill="rgba(249, 255, 253, 0.054)"/><circle r="5" cx="1275.42" cy="-48.22" fill="rgba(249, 255, 253, 0.054)"/><circle r="5" cx="1294.18" cy="64.61" fill="rgba(249, 255, 253, 0.054)"/><circle r="5" cx="1261.07" cy="251.22" fill="rgba(249, 255, 253, 0.054)"/><circle r="5" cx="1280.51" cy="525.18" fill="rgba(249, 255, 253, 0.054)"/><circle r="5" cx="1450.7" cy="-55.78" fill="rgba(249, 255, 253, 0.054)"/><circle r="5" cx="1445.23" cy="85.37" fill="rgba(249, 255, 253, 0.054)"/><circle r="5" cx="1401.82" cy="241.53" fill="rgba(249, 255, 253, 0.054)"/><circle r="5" cx="1413.25" cy="401.44" fill="rgba(249, 255, 253, 0.054)"/><circle r="5" cx="1420.05" cy="515.09" fill="rgba(249, 255, 253, 0.054)"/><circle r="5" cx="1428.14" cy="671.79" fill="rgba(249, 255, 253, 0.054)"/><circle r="5" cx="1571.17" cy="-97.03" fill="rgba(249, 255, 253, 0.054)"/><circle r="5" cx="1584.16" cy="81.53" fill="rgba(249, 255, 253, 0.054)"/><circle r="5" cx="1592.03" cy="348.32" fill="rgba(249, 255, 253, 0.054)"/></g><defs><radialGradient id="b"><stop stop-color="#465" offset=".1"/><stop stop-color="rgba(115, 250, 200, 0.08)" offset=".2"/><stop stop-color="rgba(115, 250, 200, 0)" offset="1"/></radialGradient><mask id="a"><path fill="#465" d="M0 0h1440v560H0z"/></mask></defs></svg>