<svg width="120" height="120" viewBox="0 0 31.75 31.75" xmlns="http://www.w3.org/2000/svg"><path d="M15.43 24.646c-.913.062-1.878-.272-2.621-.793-.264-.496-.083-1.143-.135-1.705.01-3.743.695-7.445 1.67-11.048.046-.445.551-1.73-.157-.859-2.17 2.392-3.752 5.259-5.108 8.17-.873 2.009-1.741 4.076-1.942 6.278-.856-.223-2.181-.663-1.786-1.818.76-2.67 2.241-5.057 3.522-7.498 1.476-2.61 2.956-5.29 5.08-7.44.584-.63 1.367-1.15 2.212-.64.639.32 1.9.541 1.966 1.275-1.263 3.073-2.04 6.328-2.656 9.586-.074.525-.4 2.029.04.81a52.7 52.7 0 0 1 5.042-8.707c.861-1.12 1.657-2.334 2.797-3.196 1.1.137 2.186.588 3.06 1.266-.329.94-.885 1.954-1.139 2.987a41.18 41.18 0 0 0-1.595 13.332c-.927-.163-2.727-.176-2.756-1.402-.089-4.08.566-8.143 1.657-12.067.025-.47.66-1.93-.185-1.138-1.89 1.615-3.079 3.871-4.223 6.038-1.29 2.702-2.48 5.558-2.743 8.569z"/></svg>