<?xml version="1.0" encoding="UTF-8"?>
<svg width="120" height="120" version="1.1" viewBox="0 0 31.75 31.75" xmlns="http://www.w3.org/2000/svg">
 <path d="m30.427 15.875a14.552 14.552 0 0 1-14.552 14.552 14.552 14.552 0 0 1-14.552-14.552 14.552 14.552 0 0 1 14.552-14.552 14.552 14.552 0 0 1 14.552 14.552z" style="fill-rule:evenodd;fill:#2b3239;stroke-width:.24852"/>
 <path d="m15.486 23.549q-0.03799 0.019-0.07599 0.019-0.03799 0-0.15196 0-0.26594 0-0.62686-0.09499-0.34192-0.07599-0.68385-0.20895-0.32292-0.11398-0.56987-0.26594-0.22795-0.15197-0.28494-0.26594-0.019-0.26594-0.019-0.55088 0-0.28494 0-0.55088 0-2.1275 0.30393-4.445 0.32293-2.3175 1.0448-5.0149 0.07599-0.26594 0.15197-0.66485 0.09498-0.41791 0.18996-0.8928-0.4559 0.36092-1.0828 1.1587-0.62686 0.77882-1.3297 1.8616-0.68384 1.0638-1.3867 2.3555-0.68384 1.2727-1.2537 2.6024-0.56987 1.3107-0.98777 2.6024-0.39891 1.2917-0.49389 2.3935-0.9118-0.26594-1.2727-0.53188-0.34192-0.26594-0.34192-0.64585 0-0.34192 0.20895-0.96878 0.20895-0.62686 0.58887-1.4817 0.37991-0.85481 0.93079-1.8996 0.55088-1.0638 1.2157-2.2795 0.75983-1.3867 1.4817-2.6024 0.74083-1.2157 1.4437-2.2035 0.70284-0.98778 1.3677-1.7096 0.68384-0.72184 1.3487-1.1018 0.26594 0 0.70284 0.13297 0.4559 0.13297 0.8738 0.32293 0.4369 0.18996 0.75983 0.39891 0.34192 0.18996 0.37991 0.32293-0.26594 0.53188-0.62686 1.5956-0.36092 1.0638-0.74083 2.4125-0.36092 1.3487-0.70284 2.8684-0.32293 1.5007-0.51288 2.8874 0.4369-1.0448 1.0068-2.1655 0.58887-1.1397 1.2347-2.2415 0.64586-1.1207 1.3107-2.1655 0.68384-1.0448 1.3297-1.8996 0.64585-0.8738 1.1967-1.5197 0.56987-0.64585 1.0068-0.94979 0.26594 0 0.70284 0.13297 0.4559 0.13297 0.87381 0.32293 0.4369 0.18996 0.75983 0.39891 0.34192 0.18996 0.37992 0.32293-0.60786 1.0828-1.0638 2.6404-0.4559 1.5576-0.77882 3.2673-0.30393 1.7096-0.47489 3.4002-0.15197 1.6716-0.15197 3.0013 0 0.4369 0 0.9118 0 0.47489 0.03799 0.98778-0.26594 0-0.64586-0.07599-0.36092-0.05699-0.72184-0.17096-0.34192-0.11398-0.62686-0.26594-0.28494-0.13297-0.39891-0.30393-0.019-0.26594-0.019-0.55088 0-0.28494 0-0.55088 0-2.1275 0.30393-4.445 0.32293-2.3175 1.0448-5.0149 0.07599-0.26594 0.17096-0.72184 0.09499-0.4559 0.18996-0.94979-0.53188 0.26594-1.2157 1.0258-0.66485 0.74083-1.3677 1.8236-0.68385 1.0638-1.3677 2.3745-0.66485 1.3107-1.2157 2.6784-0.53188 1.3487-0.9118 2.6974-0.36092 1.3297-0.4369 2.4504z" style="fill:#ffffff;stroke-width:3.1659"/>
</svg>
