<svg width="120" height="120" viewBox="0 0 32 32" xmlns="http://www.w3.org/2000/svg"><path d="M11.607 23.782q-.038.02-.077.02h-.153q-.268 0-.631-.097-.345-.076-.69-.21-.325-.115-.574-.268-.23-.153-.287-.268-.02-.268-.02-.555v-.556q0-2.144.307-4.479.326-2.336 1.053-5.054.077-.268.153-.67.096-.421.192-.9-.46.364-1.092 1.168-.631.785-1.34 1.876-.689 1.072-1.397 2.374-.69 1.283-1.264 2.623-.574 1.32-.995 2.622-.402 1.302-.498 2.412-.919-.268-1.282-.536-.345-.268-.345-.65 0-.345.21-.977t.594-1.493q.383-.862.938-1.914.555-1.072 1.225-2.298.766-1.397 1.493-2.622.747-1.225 1.455-2.22.709-.996 1.379-1.724.689-.727 1.359-1.11.268 0 .708.134.46.134.88.325.441.192.766.402.345.192.383.326-.268.536-.631 1.608-.364 1.072-.747 2.431-.364 1.36-.708 2.89-.326 1.513-.517 2.91.44-1.052 1.014-2.182.594-1.148 1.245-2.259.65-1.13 1.32-2.182.69-1.053 1.34-1.914.652-.881 1.207-1.532.574-.65 1.014-.957.268 0 .709.134.459.134.88.325.44.192.766.402.344.192.383.326-.613 1.091-1.072 2.66-.46 1.57-.785 3.293-.306 1.723-.479 3.427-.153 1.685-.153 3.025v.918q0 .479.038.996-.268 0-.65-.077-.364-.057-.728-.172-.344-.115-.632-.268-.287-.134-.402-.306-.019-.268-.019-.555v-.556q0-2.144.307-4.48.325-2.335 1.052-5.053.077-.268.173-.727.095-.46.191-.957-.536.268-1.225 1.033-.67.747-1.378 1.838-.69 1.072-1.379 2.393-.67 1.32-1.225 2.7-.536 1.358-.919 2.717-.363 1.34-.44 2.47zm17.248-2.508q.479.823.479 1.589 0 .172-.039.306-.019.153-.057.306-.326-.038-.69-.057-.344-.02-.727-.02-.46 0-.938.02-.46.038-1.033.096t-1.283.153q-.708.096-1.646.249-.44-.153-.881-.613-.44-.44-.823-1.072.191-.421.478-1.034.288-.631.67-1.512.383-.9.843-2.086.478-1.206 1.014-2.776.345-1.034.594-1.819.249-.785.44-1.512.21-.747.402-1.55.192-.805.421-1.858.766.154 1.321.575.574.402 1.091 1.167-.153.25-.402.804-.248.556-.593 1.36-.326.785-.728 1.8-.402.995-.842 2.143-.421 1.13-.823 2.125l-.727 1.8q-.307.804-.498 1.378t-.192.861q.307-.019.556-.038.248-.02.516-.057.268-.058.575-.115.325-.077.765-.192.383-.095.709-.153.325-.076.632-.115.325-.057.65-.076.345-.039.766-.077z" style="stroke-width:3.1906"/></svg>